<svg width="12" height="12" viewBox="0 0 12 12" fill="none" xmlns="http://www.w3.org/2000/svg">
<path d="M2 9C1.725 9 1.48958 8.90208 1.29375 8.70625C1.09792 8.51042 1 8.275 1 8V4C1 3.725 1.09792 3.48958 1.29375 3.29375C1.48958 3.09792 1.725 3 2 3H10C10.275 3 10.5104 3.09792 10.7063 3.29375C10.9021 3.48958 11 3.725 11 4V8C11 8.275 10.9021 8.51042 10.7063 8.70625C10.5104 8.90208 10.275 9 10 9H2ZM2 8H10V4H2V8ZM3.5 7.5H4.5V6.5H5.5V5.5H4.5V4.5H3.5V5.5H2.5V6.5H3.5V7.5ZM7.25 7.5C7.45833 7.5 7.63542 7.42708 7.78125 7.28125C7.92708 7.13542 8 6.95833 8 6.75C8 6.54167 7.92708 6.36458 7.78125 6.21875C7.63542 6.07292 7.45833 6 7.25 6C7.04167 6 6.86458 6.07292 6.71875 6.21875C6.57292 6.36458 6.5 6.54167 6.5 6.75C6.5 6.95833 6.57292 7.13542 6.71875 7.28125C6.86458 7.42708 7.04167 7.5 7.25 7.5ZM8.75 6C8.95833 6 9.13542 5.92708 9.28125 5.78125C9.42708 5.63542 9.5 5.45833 9.5 5.25C9.5 5.04167 9.42708 4.86458 9.28125 4.71875C9.13542 4.57292 8.95833 4.5 8.75 4.5C8.54167 4.5 8.36458 4.57292 8.21875 4.71875C8.07292 4.86458 8 5.04167 8 5.25C8 5.45833 8.07292 5.63542 8.21875 5.78125C8.36458 5.92708 8.54167 6 8.75 6Z" fill="white"/>
</svg>
