<?xml version="1.0" encoding="UTF-8"?><svg id="Main" xmlns="http://www.w3.org/2000/svg" viewBox="0 0 841.89 595.31"><defs><style>.cls-1{fill:#fff;}.cls-2{fill:#d9302c;}.cls-3{fill:#eaa23f;}.cls-4{fill:#ff5f00;}</style></defs><g id="Card3"><path id="Body" class="cls-3" d="m339.72,472.07L494.67,20.94c4.27-12.44,18.36-19.23,31.47-15.18l298.5,92.22c13.11,4.05,20.28,17.42,16.01,29.85l-154.95,451.13c-4.27,12.44-18.36,19.23-31.47,15.18l-298.5-92.22c-13.11-4.05-20.28-17.42-16.01-29.85Z"/><path class="cls-1" d="m566.64,92.74l-33.41,16.12-16.83-31.39c-13.27-24.75,20.14-40.86,33.41-16.12,25.89-12.49,42.73,18.9,16.83,31.39Z"/><path class="cls-1" d="m611.09,519.21l33.4-16.15,16.87,31.37c13.3,24.73-20.1,40.89-33.4,16.15-25.88,12.52-42.75-18.85-16.87-31.37Z"/><path class="cls-1" d="m640.38,324.93l-70.6,34.05-35.64-66.46c-28.1-52.39,42.5-86.45,70.6-34.05,54.71-26.39,90.35,40.07,35.64,66.46Z"/></g><g id="Card2"><path id="Body-2" class="cls-4" d="m230.42,499.65l9.41-478.37C240.06,9.31,250.45-.22,263.03,0l318.26,5.63c12.58.22,22.59,10.11,22.36,22.09l-9.41,478.37c-.24,11.97-10.62,21.5-23.2,21.28l-318.26-5.63c-12.58-.22-22.59-10.11-22.36-22.09Z"/><path class="cls-1" d="m330.73,72.03l-27,24.67-25.76-25.36c-20.31-19.99,6.69-44.66,27-24.67,20.92-19.12,46.68,6.25,25.76,25.36Z"/><path class="cls-1" d="m504.51,467.61l26.97-24.7,25.79,25.33c20.33,19.97-6.64,44.67-26.97,24.7-20.9,19.14-46.69-6.2-25.79-25.33Z"/><path class="cls-1" d="m472.73,273.68l-57.04,52.12-54.54-53.7c-43-42.33,14.04-94.45,57.04-52.12,44.2-40.39,98.74,13.31,54.54,53.7Z"/></g><g id="Card1"><path id="Body-3" class="cls-2" d="m145.17,576.83L1.06,122.48c-3.97-12.52,3.51-25.73,16.72-29.5L318.42,7.21c13.21-3.77,27.13,3.33,31.1,15.86l144.11,454.35c3.97,12.52-3.51,25.73-16.72,29.5l-300.63,85.77c-13.21,3.77-27.13-3.33-31.1-15.86Z"/><path class="cls-1" d="m103.37,142.51l-17.75,31.32-32.71-16.67c-25.78-13.14-8.04-44.46,17.75-31.32,13.75-24.27,46.46-7.6,32.71,16.67Z"/><path class="cls-1" d="m396.4,468.72l17.71-31.34,32.73,16.64c25.8,13.12,8.09,44.45-17.71,31.34-13.73,24.28-46.45,7.64-32.73-16.64Z"/><path class="cls-1" d="m303.6,293.3l-37.5,66.17-69.24-35.3c-54.59-27.83-17.09-94,37.5-66.17,29.06-51.28,98.3-15.98,69.24,35.3Z"/></g></svg>