<svg width="12" height="10" viewBox="0 0 12 10" fill="none" xmlns="http://www.w3.org/2000/svg">
<g clip-path="url(#clip0_15_46)">
<path d="M4.62498 10L4.42498 8.4C4.31664 8.35833 4.21456 8.30833 4.11873 8.25C4.02289 8.19167 3.92914 8.12917 3.83748 8.0625L2.34998 8.6875L0.974976 6.3125L2.26248 5.3375C2.25414 5.27917 2.24998 5.22292 2.24998 5.16875V4.83125C2.24998 4.77708 2.25414 4.72083 2.26248 4.6625L0.974976 3.6875L2.34998 1.3125L3.83748 1.9375C3.92914 1.87083 4.02498 1.80833 4.12498 1.75C4.22498 1.69167 4.32498 1.64167 4.42498 1.6L4.62498 0H7.37498L7.57498 1.6C7.68331 1.64167 7.78539 1.69167 7.88123 1.75C7.97706 1.80833 8.07081 1.87083 8.16248 1.9375L9.64998 1.3125L11.025 3.6875L9.73748 4.6625C9.74581 4.72083 9.74998 4.77708 9.74998 4.83125V5.16875C9.74998 5.22292 9.74164 5.27917 9.72498 5.3375L11.0125 6.3125L9.63748 8.6875L8.16248 8.0625C8.07081 8.12917 7.97498 8.19167 7.87498 8.25C7.77498 8.30833 7.67498 8.35833 7.57498 8.4L7.37498 10H4.62498ZM6.02498 6.75C6.50831 6.75 6.92081 6.57917 7.26248 6.2375C7.60414 5.89583 7.77498 5.48333 7.77498 5C7.77498 4.51667 7.60414 4.10417 7.26248 3.7625C6.92081 3.42083 6.50831 3.25 6.02498 3.25C5.53331 3.25 5.11873 3.42083 4.78123 3.7625C4.44373 4.10417 4.27498 4.51667 4.27498 5C4.27498 5.48333 4.44373 5.89583 4.78123 6.2375C5.11873 6.57917 5.53331 6.75 6.02498 6.75ZM6.02498 5.75C5.81664 5.75 5.63956 5.67708 5.49373 5.53125C5.34789 5.38542 5.27498 5.20833 5.27498 5C5.27498 4.79167 5.34789 4.61458 5.49373 4.46875C5.63956 4.32292 5.81664 4.25 6.02498 4.25C6.23331 4.25 6.41039 4.32292 6.55623 4.46875C6.70206 4.61458 6.77498 4.79167 6.77498 5C6.77498 5.20833 6.70206 5.38542 6.55623 5.53125C6.41039 5.67708 6.23331 5.75 6.02498 5.75ZM5.49998 9H6.48748L6.66248 7.675C6.92081 7.60833 7.16039 7.51042 7.38123 7.38125C7.60206 7.25208 7.80414 7.09583 7.98748 6.9125L9.22498 7.425L9.71248 6.575L8.63748 5.7625C8.67914 5.64583 8.70831 5.52292 8.72498 5.39375C8.74164 5.26458 8.74998 5.13333 8.74998 5C8.74998 4.86667 8.74164 4.73542 8.72498 4.60625C8.70831 4.47708 8.67914 4.35417 8.63748 4.2375L9.71248 3.425L9.22498 2.575L7.98748 3.1C7.80414 2.90833 7.60206 2.74792 7.38123 2.61875C7.16039 2.48958 6.92081 2.39167 6.66248 2.325L6.49998 1H5.51248L5.33748 2.325C5.07914 2.39167 4.83956 2.48958 4.61873 2.61875C4.39789 2.74792 4.19581 2.90417 4.01248 3.0875L2.77498 2.575L2.28748 3.425L3.36248 4.225C3.32081 4.35 3.29164 4.475 3.27498 4.6C3.25831 4.725 3.24998 4.85833 3.24998 5C3.24998 5.13333 3.25831 5.2625 3.27498 5.3875C3.29164 5.5125 3.32081 5.6375 3.36248 5.7625L2.28748 6.575L2.77498 7.425L4.01248 6.9C4.19581 7.09167 4.39789 7.25208 4.61873 7.38125C4.83956 7.51042 5.07914 7.60833 5.33748 7.675L5.49998 9Z" fill="white"/>
</g>
<defs>
<clipPath id="clip0_15_46">
<rect width="12" height="10" fill="white"/>
</clipPath>
</defs>
</svg>
